<?xml version="1.0" encoding="UTF-8"?>
<svg id="Layer_1" data-name="Layer 1" xmlns="http://www.w3.org/2000/svg" viewBox="0 0 1000 633.13">
  <defs>
    <style>
      .cls-1, .cls-2 {
        fill: #ef1c26;
      }

      .cls-2 {
        opacity: .5;
      }
    </style>
  </defs>
  <g>
    <path d="M131.81,358.61c5.39,2.42,9.14,6.39,11.23,11.89,.99,2.53,1.49,5.07,1.49,7.6,0,2.97-.66,5.89-1.98,8.75-2.42,5.4-6.39,9.14-11.89,11.23-2.64,.99-5.23,1.49-7.76,1.49-2.97,0-5.89-.66-8.75-1.98-6.06-2.75-12.78-4.18-20.15-4.29h-.17c-5.07,0-10.47,2.53-16.19,7.6-2.87,4.29-4.96,10.52-6.28,18.66h22.13c5.83,0,10.84,2.09,15.03,6.28,4.18,4.19,6.28,9.25,6.28,15.2s-2.09,10.85-6.28,15.03c-4.19,4.19-9.2,6.28-15.03,6.28h-21.8v147.67c0,5.95-2.09,11.01-6.28,15.2-4.19,4.19-9.2,6.28-15.03,6.28s-11.01-2.09-15.2-6.28c-4.19-4.18-6.28-9.25-6.28-15.2v-143.54c-.22-1.21-.39-2.59-.5-4.13h-7.1c-5.84,0-10.85-2.09-15.03-6.28-4.18-4.18-6.28-9.19-6.28-15.03s2.09-11.01,6.28-15.2c4.18-4.18,9.19-6.28,15.03-6.28h6.94c2.2-19.27,7.71-34.69,16.52-46.25l-.17-.17c.11,0,.22-.05,.33-.17l.33-.33c5.72-7.38,12.77-12.88,21.14-16.52,10.9-4.84,21.58-7.27,32.05-7.27s21.36,2.59,31.71,7.76l-.5,.99c1.32,.55,2.03,.88,2.15,.99Z"/>
    <path d="M133.38,447.72c0-5.95,2.09-11.01,6.28-15.2,4.18-4.18,9.25-6.28,15.2-6.28s10.85,2.09,15.03,6.28c4.18,4.19,6.28,9.25,6.28,15.2v162.12c0,5.95-2.09,11.01-6.28,15.2-4.19,4.08-9.2,6.11-15.03,6.11s-11.01-2.03-15.2-6.11c-4.19-4.18-6.28-9.25-6.28-15.2v-162.12Z"/>
    <path d="M303.77,461.68c-13.77,0-26.65,6-38.65,18-9.8,9.8-15.03,18-15.69,24.61,0,3.63-.88,6.99-2.64,10.08v95.97c0,5.95-2.09,11.01-6.28,15.2-4.19,4.19-9.2,6.28-15.03,6.28s-11.01-2.09-15.2-6.28c-4.19-4.18-6.28-9.25-6.28-15.2v-161.54c0-5.95,2.09-11.01,6.28-15.2,4.18-4.18,9.25-6.28,15.2-6.28,9.47,0,16.02,4.35,19.66,13.05,18.28-14.31,37.93-21.47,58.97-21.47h.5c29.62,.22,53.9,9.91,72.84,29.07,18.94,19.05,28.58,43.55,28.91,73.5,.11,14.32,.17,28.91,.17,43.77s-.06,29.95-.17,45.26c-.11,5.95-2.26,10.96-6.44,15.03-4.08,4.19-9.08,6.28-15.03,6.28h-.17c-5.95-.11-10.96-2.26-15.03-6.44-4.08-4.18-6.11-9.08-6.11-14.7v-.5c.22-10.35,.33-22.85,.33-37.49s-.11-31.71-.33-50.87c-.22-20.15-6.77-35.62-19.66-46.41-10.79-8.92-24.06-13.49-39.81-13.71h-.33Z"/>
    <path d="M524.44,632.8c-27.86,0-51.7-10.41-71.52-31.22-19.82-20.92-29.73-46.08-29.73-75.48s9.91-54.51,29.73-75.32c19.82-20.81,43.66-31.22,71.52-31.22,21.58,0,41.18,6.66,58.8,19.99v-69.87c0-5.95,2.09-11.01,6.28-15.2,4.18-4.18,9.25-6.28,15.2-6.28s11.01,2.09,15.2,6.28c4.18,4.19,6.28,9.25,6.28,15.2v151.63c0,18.83,.77,33.31,2.31,43.44,2.86,14.65,6.82,23.02,11.89,25.11,5.39,2.2,9.25,6.06,11.56,11.56,1.21,2.64,1.82,5.34,1.82,8.09s-.61,5.51-1.82,8.26c-3.63,8.81-10.24,13.21-19.82,13.21-2.76,0-5.45-.5-8.09-1.49-11.89-4.96-21.31-14.26-28.24-27.91-19.71,20.81-43.5,31.22-71.36,31.22Zm0-170.46c-16.08,0-29.84,6.22-41.29,18.66-11.34,12.55-17.01,27.58-17.01,45.09s5.67,32.65,17.01,45.09c11.45,12.55,25.22,18.83,41.29,18.83s29.78-6.28,41.13-18.83c11.45-12.44,17.18-27.47,17.18-45.09s-5.73-32.54-17.18-45.09c-11.34-12.44-25.05-18.66-41.13-18.66Z"/>
    <path d="M755.87,633.13c-26.54,0-49.28-10.46-68.22-31.38-18.83-20.92-28.24-46.14-28.24-75.65s9.41-54.73,28.24-75.65c18.94-20.92,41.68-31.38,68.22-31.38,21.36,0,39.26,5.4,53.68,16.19,16.3,12.11,24.45,29.02,24.45,50.71,0,22.91-13.99,41.41-41.95,55.5-15.2,7.6-31.5,12.94-48.89,16.02-1.32,.22-2.59,.33-3.8,.33-4.41,0-8.48-1.32-12.22-3.96-4.85-3.41-7.76-8.04-8.75-13.87-.22-1.32-.33-2.59-.33-3.8,0-4.4,1.32-8.48,3.96-12.22,3.41-4.84,8.04-7.76,13.87-8.75,13.43-2.31,25.82-6.39,37.16-12.22,12-6.06,18-11.73,18-17.01,0-16.07-11.73-24.12-35.18-24.12-14.76,0-27.37,6.28-37.82,18.83-10.57,12.55-15.86,27.7-15.86,45.42s5.29,32.82,15.86,45.26c10.46,12.55,23.07,18.83,37.82,18.83,23.67,0,40.36-9.25,50.05-27.75,2.75-5.17,6.99-8.64,12.72-10.41,2.2-.66,4.35-.99,6.44-.99,3.41,0,6.72,.83,9.91,2.48,5.17,2.76,8.64,6.99,10.41,12.72,.66,2.2,.99,4.35,.99,6.44,0,3.3-.83,6.55-2.48,9.75-17.84,33.81-47.19,50.71-88.04,50.71Z"/>
    <path d="M890.65,631.64c-5.95,0-11.01-2.09-15.2-6.28-4.19-4.18-6.28-9.19-6.28-15.03v-157.25c0-5.83,2.09-10.85,6.28-15.03,4.18-4.18,9.25-6.28,15.2-6.28,7.49,0,13.38,3.09,17.67,9.25,7.6-12.99,21.31-20.59,41.13-22.79h.5c13.32,.11,25.77,2.81,37.33,8.09,5.39,2.42,9.14,6.39,11.23,11.89,.99,2.53,1.49,5.07,1.49,7.6,0,2.97-.66,5.89-1.98,8.75-2.42,5.4-6.39,9.14-11.89,11.23-2.64,.99-5.23,1.49-7.76,1.49-2.97,0-5.89-.66-8.75-1.98-6.06-2.75-12.77-4.13-20.15-4.13h-.17c-13.21,3.09-22.68,10.49-28.41,22.22-5.73,11.73-8.7,25.58-8.92,41.54v85.39c0,5.84-2.09,10.85-6.28,15.03-4.19,4.19-9.2,6.28-15.03,6.28Z"/>
  </g>
  <g>
    <path class="cls-1" d="M154.93,15.92c6.34,2.85,10.74,7.51,13.2,13.98,1.16,2.98,1.75,5.95,1.75,8.93,0,3.49-.78,6.93-2.33,10.29-2.85,6.34-7.51,10.74-13.98,13.2-3.11,1.16-6.15,1.75-9.12,1.75-3.49,0-6.93-.78-10.29-2.33-7.12-3.23-15.02-4.92-23.69-5.05h-.19c-5.95,0-12.3,2.98-19.03,8.93-3.37,5.05-5.82,12.36-7.38,21.94h26.02c6.86,0,12.75,2.46,17.67,7.38,4.92,4.92,7.38,10.87,7.38,17.86s-2.46,12.75-7.38,17.67c-4.92,4.92-10.81,7.38-17.67,7.38h-25.63v173.57c0,6.99-2.46,12.94-7.38,17.86-4.92,4.92-10.81,7.38-17.67,7.38s-12.94-2.46-17.86-7.38c-4.92-4.92-7.38-10.87-7.38-17.86V142.7c-.26-1.42-.45-3.04-.58-4.85h-8.35c-6.86,0-12.75-2.46-17.67-7.38-4.92-4.92-7.38-10.81-7.38-17.67s2.46-12.94,7.38-17.86c4.92-4.92,10.81-7.38,17.67-7.38h8.15c2.59-22.65,9.06-40.77,19.41-54.36l-.19-.19c.13,0,.26-.06,.39-.19l.39-.39c6.73-8.67,15.01-15.14,24.85-19.41,12.81-5.69,25.37-8.54,37.66-8.54s25.11,3.04,37.28,9.12l-.58,1.16c1.55,.65,2.39,1.04,2.52,1.16Z"/>
    <path class="cls-1" d="M253.29,338.59c-31.19,0-57.92-12.3-80.18-36.89-22.13-24.59-33.2-54.23-33.2-88.92s11.07-64.33,33.2-88.92c22.26-24.59,48.99-36.89,80.18-36.89,25.11,0,46.14,6.34,63.1,19.03,19.15,14.24,28.73,34.11,28.73,59.6,0,26.92-16.44,48.67-49.31,65.23-17.86,8.93-37.02,15.21-57.47,18.83-1.55,.26-3.04,.39-4.47,.39-5.18,0-9.97-1.55-14.37-4.66-5.7-4.01-9.12-9.45-10.29-16.31-.26-1.55-.39-3.04-.39-4.47,0-5.18,1.55-9.97,4.66-14.37,4.01-5.69,9.45-9.12,16.31-10.29,15.79-2.72,30.35-7.51,43.68-14.37,14.11-7.12,21.16-13.78,21.16-20,0-18.9-13.78-28.35-41.35-28.35-17.35,0-32.16,7.38-44.46,22.13-12.43,14.76-18.64,32.55-18.64,53.39s6.21,38.57,18.64,53.2c12.3,14.76,27.11,22.13,44.46,22.13,27.83,0,47.44-10.87,58.83-32.62,3.23-6.08,8.22-10.16,14.95-12.23,2.59-.78,5.11-1.16,7.57-1.16,4.01,0,7.89,.97,11.65,2.91,6.08,3.24,10.16,8.22,12.23,14.95,.78,2.59,1.16,5.11,1.16,7.57,0,3.88-.97,7.7-2.91,11.45-20.97,39.74-55.46,59.6-103.48,59.6Z"/>
    <path class="cls-1" d="M755.08,176.29c26.66,5.18,46.14,11.26,58.44,18.25,21.48,12.17,33.2,30.29,35.14,54.36,.13,2.46,.19,4.92,.19,7.38,0,18.77-5.82,35.53-17.47,50.28-13.2,16.57-31.45,27.5-54.75,32.81-8.29,1.94-16.76,2.91-25.43,2.91-20.97,0-39.93-5.05-56.89-15.14-18.77-11.26-32.23-27.18-40.38-47.76-1.16-3.11-1.75-6.15-1.75-9.12,0-3.36,.71-6.73,2.14-10.1,2.85-6.34,7.51-10.74,13.98-13.2,3.11-1.16,6.15-1.75,9.12-1.75,3.36,0,6.73,.71,10.1,2.14,6.34,2.72,10.81,7.31,13.4,13.78,5.18,13.07,14.37,22.13,27.57,27.18,6.99,2.72,14.23,4.08,21.74,4.08,4.92,0,9.96-.58,15.14-1.75,22.13-4.92,33.2-16.18,33.2-33.78,0-1.29-.07-2.59-.19-3.88-.52-7.25-4.66-12.81-12.43-16.7-6.86-3.36-20.39-7.05-40.58-11.07-24.98-4.92-42.58-10.22-52.81-15.92-20.71-11.39-31.06-28.35-31.06-50.87,0-2.07,.06-4.21,.19-6.41,1.29-15.92,7.7-29.77,19.22-41.55,11.52-11.91,26.53-20.13,45.04-24.66,9.32-2.33,18.64-3.49,27.96-3.49,10.48,0,20.9,1.49,31.26,4.47,22.26,6.34,39.09,18.44,50.48,36.31,2.72,4.14,4.08,8.48,4.08,13.01,0,1.94-.26,3.88-.78,5.82-1.55,6.73-5.24,11.91-11.07,15.53-4.27,2.72-8.67,4.08-13.2,4.08-1.94,0-3.88-.26-5.82-.78-6.86-1.55-12.1-5.24-15.73-11.07-5.05-7.77-13.14-13.01-24.27-15.73-4.92-1.16-9.9-1.75-14.95-1.75s-10.48,.65-15.92,1.94c-16.57,4.14-25.31,11.45-26.21,21.94v.78c0,4.14,2.07,7.31,6.21,9.51,5.69,2.85,18.06,6.15,37.08,9.9Z"/>
    <path class="cls-1" d="M974.76,85.81c6.99,0,12.94,2.46,17.86,7.38,4.92,4.92,7.38,10.81,7.38,17.67s-2.46,12.94-7.38,17.86c-4.92,4.92-10.87,7.38-17.86,7.38h-30.87v175.32c0,6.99-2.46,12.94-7.38,17.86-4.92,4.92-10.87,7.38-17.86,7.38s-12.75-2.46-17.67-7.38c-4.92-4.92-7.38-10.87-7.38-17.86V136.1h-16.89c-6.99,0-12.95-2.46-17.86-7.38-4.92-4.92-7.38-10.87-7.38-17.86s2.46-12.75,7.38-17.67c4.92-4.92,10.87-7.38,17.86-7.38h16.89V25.24c0-6.99,2.46-12.94,7.38-17.86,4.92-4.92,10.81-7.38,17.67-7.38s12.94,2.46,17.86,7.38c4.92,4.92,7.38,10.87,7.38,17.86v60.57h30.87Z"/>
    <g>
      <g>
        <path class="cls-1" d="M511.1,332.87c-31.06,4.08-59.16-4.64-84.3-26.14-25.28-21.48-40.17-49.42-44.68-83.82-4.51-34.39,2.66-65.23,21.54-92.51,18.74-27.26,43.64-42.93,74.7-47.01s59.36,4.68,84.52,26.31c4.86,4.19,7.7,9.43,8.53,15.72l.2,1.54c.52,6.98-1.49,13.05-6.03,18.22-4.19,4.86-9.37,7.69-15.53,8.5l-1.54,.2c-6.98,.52-13.12-1.48-18.41-6-13.83-11.89-28.9-16.77-45.19-14.63-17.32,2.27-31.13,11.53-41.39,27.76-10.27,16.23-14.05,34.68-11.34,55.34,2.71,20.66,11.11,37.44,25.21,50.34,14.11,13.03,29.83,18.41,47.15,16.13,14.11-1.85,26.14-8.72,36.07-20.59,9.7-11.59,15.37-25.64,16.98-42.17-.6-3.57-1.13-7.1-1.58-10.56-.77-5.9-1.32-11.58-1.65-17.02-.4-7,1.74-13.09,6.41-18.27,3.97-4.57,8.9-7.24,14.81-8.01,.77-.1,1.61-.14,2.53-.14,12.69-.75,21.07,4.87,25.12,16.87,2.12,3.25,3.43,6.73,3.92,10.45,.99,7.57,1.34,15.23,1.06,22.97,1.93,28.13-.36,33.47,8.98,36.03,6.77,1.85,11.92,5.75,15.44,11.68,1.7,3.04,2.77,6.17,3.19,9.37,.4,3.08,.17,6.31-.69,9.68-2.87,10.95-9.89,17.16-21.05,18.62-3.34,.44-6.57,.21-9.68-.69-12.15-4.72-9.11-3.71-20.09-13.23-18.77,26.09-43.17,41.11-73.2,45.05Z"/>
        <path class="cls-1" d="M449.8,296.51h0c-11.01-8.46-26.8-6.39-35.25,4.63l-44.55,58.01c-8.46,11.01-6.39,26.8,4.63,35.25,11.01,8.46,26.8,6.39,35.25-4.63l44.55-58.01c8.46-11.01,6.39-26.8-4.63-35.25Z"/>
      </g>
      <path class="cls-2" d="M499.35,153.12c-2.23-2.5-5.54-3.74-8.87-3.31-15.79,2.05-29.76,11.62-37.35,25.59-1.44,2.65-1.56,5.77-.33,8.57,1.27,2.9,3.77,5.01,7.01,5.83,4.42,1.11,9.02-.86,11.17-4.8,4.55-8.3,12.87-13.95,22.26-15.12,3.97-.5,7.32-3.56,8.34-7.63,.81-3.23-.03-6.65-2.24-9.13Z"/>
    </g>
  </g>
</svg>